<svg width="136" height="17" viewBox="0 0 136 17" fill="none" xmlns="http://www.w3.org/2000/svg">
<path fill-rule="evenodd" clip-rule="evenodd" d="M4.8545 10.563C7.56523 14.5958 10.5984 15.8894 11.7531 16.1646C12.6953 15.1628 13.1728 14.2818 13.5301 13.482C12.8659 12.5218 11.8377 11.4791 10.8442 10.818L9.34258 11.9132C8.929 11.7137 7.8251 10.9873 6.65631 9.24914C5.48795 7.51069 5.2102 6.18186 5.17168 5.70886L6.67356 4.61406C6.41697 3.41558 5.82793 2.05257 5.18886 1.07416C4.34495 1.15019 3.38677 1.31609 2.16058 1.89542C2.01385 3.11963 2.14333 6.5305 4.8545 10.563Z" fill="#0B74CD"/>
<path fill-rule="evenodd" clip-rule="evenodd" d="M55.8045 13.6156C55.35 13.8719 54.8295 14 54.2431 14C53.6567 14 53.1337 13.8719 52.6744 13.6156C52.215 13.3593 51.8289 12.9946 51.5161 12.5215C51.2034 12.0484 50.9664 11.4718 50.8051 10.7917C50.6438 10.1116 50.5632 9.34767 50.5632 8.5C50.5632 7.65233 50.6438 6.88844 50.8051 6.20833C50.9664 5.52823 51.2034 4.95161 51.5161 4.47849C51.8289 4.00538 52.215 3.64068 52.6744 3.38441C53.1337 3.12814 53.6567 3 54.2431 3C54.8295 3 55.35 3.12814 55.8045 3.38441C56.259 3.64068 56.6402 4.00538 56.948 4.47849C57.2559 4.95161 57.4905 5.52823 57.6518 6.20833C57.813 6.88844 57.8937 7.65233 57.8937 8.5C57.8937 9.34767 57.813 10.1116 57.6518 10.7917C57.4905 11.4718 57.2559 12.0484 56.948 12.5215C56.6402 12.9946 56.259 13.3593 55.8045 13.6156ZM37.2424 4.89247L33.0933 13.7339H31.0261L35.3951 4.8629H30.1904V3.26613H37.2424V4.89247ZM25.7208 10.0081V13.2608H24.2254V10.0081H21V8.5H24.2254V5.24731H25.7208V8.5H28.9463V10.0081H25.7208ZM44.8767 13.7339L49.0258 4.89247V3.26613H41.9739V4.8629H47.1785L42.8095 13.7339H44.8767ZM54.2431 12.4919C53.8424 12.4919 53.5198 12.3515 53.2755 12.0706C53.0311 11.7897 52.843 11.4471 52.711 11.043C52.5791 10.6389 52.4887 10.2052 52.4398 9.74194C52.3909 9.27867 52.3665 8.8647 52.3665 8.5C52.3665 8.1353 52.3909 7.72133 52.4398 7.25806C52.4887 6.7948 52.5791 6.35618 52.711 5.9422C52.843 5.52823 53.0311 5.18078 53.2755 4.89987C53.5198 4.61895 53.8424 4.47849 54.2431 4.47849C54.6341 4.47849 54.9517 4.61895 55.1961 4.89987C55.4404 5.18078 55.6286 5.52823 55.7605 5.9422C55.8925 6.35618 55.9804 6.7948 56.0244 7.25806C56.0684 7.72133 56.0904 8.1353 56.0904 8.5C56.0904 8.8647 56.0684 9.27867 56.0244 9.74194C55.9804 10.2052 55.8925 10.6389 55.7605 11.043C55.6286 11.4471 55.4404 11.7897 55.1961 12.0706C54.9517 12.3515 54.6341 12.4919 54.2431 12.4919ZM64.1666 13.793C63.7267 13.931 63.2576 14 62.7591 14C62.2606 14 61.7915 13.931 61.3517 13.793C60.9118 13.655 60.5282 13.448 60.2008 13.172C59.8733 12.8961 59.6143 12.5585 59.4237 12.1593C59.2331 11.7601 59.1379 11.2993 59.1379 10.7769C59.1379 10.4418 59.1916 10.1313 59.2991 9.84543C59.4066 9.55959 59.5508 9.30824 59.7316 9.0914C59.9124 8.87455 60.1201 8.69467 60.3547 8.55175C60.5893 8.40883 60.8336 8.30287 61.0878 8.23387V8.2043C60.6186 8.03674 60.2325 7.76568 59.9295 7.39113C59.6266 7.01658 59.4751 6.52375 59.4751 5.91263C59.4751 5.46909 59.5606 5.06743 59.7316 4.70766C59.9027 4.34789 60.1372 4.04234 60.4353 3.79099C60.7335 3.53965 61.0804 3.34498 61.4763 3.20699C61.8721 3.069 62.2997 3 62.7591 3C63.2087 3 63.6339 3.06407 64.0346 3.1922C64.4354 3.32034 64.7848 3.50762 65.0829 3.75403C65.381 4.00045 65.6156 4.29861 65.7866 4.64852C65.9577 4.99843 66.0432 5.39516 66.0432 5.83871C66.0432 6.44982 65.8917 6.95744 65.5887 7.36156C65.2857 7.76568 64.8996 8.04659 64.4305 8.2043V8.23387C64.7041 8.30287 64.9583 8.41375 65.1928 8.56653C65.4274 8.71931 65.6327 8.90659 65.8086 9.12836C65.9845 9.35013 66.1238 9.59901 66.2264 9.875C66.3291 10.151 66.3804 10.4516 66.3804 10.7769C66.3804 11.2993 66.2851 11.7601 66.0945 12.1593C65.9039 12.5585 65.6449 12.8961 65.3175 13.172C64.99 13.448 64.6064 13.655 64.1666 13.793ZM62.7591 7.46505C62.2997 7.46505 61.9357 7.3172 61.6669 7.02151C61.3981 6.72581 61.2637 6.36604 61.2637 5.9422C61.2637 5.4888 61.403 5.12903 61.6815 4.8629C61.9601 4.59677 62.3193 4.46371 62.7591 4.46371C62.9546 4.46371 63.1427 4.49821 63.3236 4.5672C63.5044 4.6362 63.6657 4.73477 63.8074 4.8629C63.9491 4.99104 64.0615 5.14628 64.1446 5.32863C64.2277 5.51098 64.2692 5.7155 64.2692 5.9422C64.2692 6.14919 64.2301 6.34633 64.1519 6.5336C64.0737 6.72088 63.9662 6.88351 63.8294 7.02151C63.6925 7.1595 63.5313 7.26792 63.3456 7.34677C63.1599 7.42563 62.9644 7.46505 62.7591 7.46505ZM61.469 12.0484C61.811 12.3539 62.2411 12.5067 62.7591 12.5067C63.2674 12.5067 63.6925 12.3539 64.0346 12.0484C64.3767 11.7428 64.5478 11.3141 64.5478 10.7621C64.5478 10.5058 64.5013 10.2668 64.4085 10.045C64.3156 9.82325 64.1886 9.63351 64.0273 9.47581C63.866 9.3181 63.6754 9.19489 63.4555 9.10618C63.2356 9.01747 63.0035 8.97312 62.7591 8.97312C62.505 8.97312 62.268 9.01747 62.0481 9.10618C61.8281 9.19489 61.6376 9.31564 61.4763 9.46841C61.315 9.62119 61.188 9.80847 61.0951 10.0302C61.0022 10.252 60.9558 10.496 60.9558 10.7621C60.9558 11.3141 61.1269 11.7428 61.469 12.0484ZM77.9879 13.7339V12.1075H73.311L76.3019 9.22446C76.5364 9.00762 76.7539 8.78338 76.9543 8.55175C77.1546 8.32012 77.3306 8.07616 77.4821 7.81989C77.6336 7.56362 77.7533 7.2901 77.8413 6.99933C77.9292 6.70856 77.9732 6.39561 77.9732 6.06048C77.9732 5.5578 77.8779 5.11671 77.6873 4.73723C77.4967 4.35775 77.2402 4.03741 76.9176 3.77621C76.5951 3.51501 76.2261 3.32034 75.8107 3.1922C75.3953 3.06407 74.9628 3 74.5132 3C74.0343 3 73.592 3.07639 73.1864 3.22917C72.7808 3.38194 72.4265 3.5914 72.1235 3.85753C71.8205 4.12366 71.5712 4.43907 71.3758 4.80376C71.1803 5.16846 71.0581 5.56765 71.0092 6.00134L72.7246 6.26747C72.793 5.75493 72.9787 5.32863 73.2817 4.98858C73.5847 4.64852 73.9854 4.47849 74.4839 4.47849C74.953 4.47849 75.3464 4.62388 75.6641 4.91465C75.9818 5.20542 76.1406 5.59722 76.1406 6.09005C76.1406 6.50403 76.0453 6.87119 75.8547 7.19153C75.6641 7.51187 75.4075 7.82975 75.085 8.14516L71.0825 12.1075V13.7339H77.9879ZM84.4807 13.793C84.0408 13.931 83.5717 14 83.0732 14C82.5747 14 82.1056 13.931 81.6658 13.793C81.2259 13.655 80.8423 13.448 80.5149 13.172C80.1875 12.8961 79.9284 12.5585 79.7378 12.1593C79.5473 11.7601 79.452 11.2993 79.452 10.7769C79.452 10.4418 79.5057 10.1313 79.6132 9.84543C79.7207 9.55959 79.8649 9.30824 80.0457 9.0914C80.2265 8.87455 80.4342 8.69467 80.6688 8.55175C80.9034 8.40883 81.1477 8.30287 81.4019 8.23387V8.2043C80.9327 8.03674 80.5466 7.76568 80.2437 7.39113C79.9407 7.01658 79.7892 6.52375 79.7892 5.91263C79.7892 5.46909 79.8747 5.06743 80.0457 4.70766C80.2168 4.34789 80.4513 4.04234 80.7495 3.79099C81.0476 3.53965 81.3945 3.34498 81.7904 3.20699C82.1862 3.069 82.6138 3 83.0732 3C83.5228 3 83.948 3.06407 84.3487 3.1922C84.7495 3.32034 85.0989 3.50762 85.397 3.75403C85.6951 4.00045 85.9297 4.29861 86.1007 4.64852C86.2718 4.99843 86.3573 5.39516 86.3573 5.83871C86.3573 6.44982 86.2058 6.95744 85.9028 7.36156C85.5998 7.76568 85.2137 8.04659 84.7446 8.2043V8.23387C85.0182 8.30287 85.2724 8.41375 85.507 8.56653C85.7415 8.71931 85.9468 8.90659 86.1227 9.12836C86.2986 9.35013 86.4379 9.59901 86.5406 9.875C86.6432 10.151 86.6945 10.4516 86.6945 10.7769C86.6945 11.2993 86.5992 11.7601 86.4086 12.1593C86.218 12.5585 85.959 12.8961 85.6316 13.172C85.3041 13.448 84.9205 13.655 84.4807 13.793ZM83.0732 7.46505C82.6138 7.46505 82.2498 7.3172 81.981 7.02151C81.7122 6.72581 81.5778 6.36604 81.5778 5.9422C81.5778 5.4888 81.7171 5.12903 81.9956 4.8629C82.2742 4.59677 82.6334 4.46371 83.0732 4.46371C83.2687 4.46371 83.4569 4.49821 83.6377 4.5672C83.8185 4.6362 83.9798 4.73477 84.1215 4.8629C84.2632 4.99104 84.3756 5.14628 84.4587 5.32863C84.5418 5.51098 84.5833 5.7155 84.5833 5.9422C84.5833 6.14919 84.5442 6.34633 84.466 6.5336C84.3878 6.72088 84.2803 6.88351 84.1435 7.02151C84.0066 7.1595 83.8454 7.26792 83.6597 7.34677C83.474 7.42563 83.2785 7.46505 83.0732 7.46505ZM81.7831 12.0484C82.1251 12.3539 82.5552 12.5067 83.0732 12.5067C83.5815 12.5067 84.0066 12.3539 84.3487 12.0484C84.6908 11.7428 84.8619 11.3141 84.8619 10.7621C84.8619 10.5058 84.8154 10.2668 84.7226 10.045C84.6297 9.82325 84.5027 9.63351 84.3414 9.47581C84.1801 9.3181 83.9895 9.19489 83.7696 9.10618C83.5497 9.01747 83.3176 8.97312 83.0732 8.97312C82.8191 8.97312 82.5821 9.01747 82.3622 9.10618C82.1423 9.19489 81.9517 9.31564 81.7904 9.46841C81.6291 9.62119 81.5021 9.80847 81.4092 10.0302C81.3163 10.252 81.2699 10.496 81.2699 10.7621C81.2699 11.3141 81.441 11.7428 81.7831 12.0484ZM91.6186 14C92.205 14 92.7255 13.8719 93.18 13.6156C93.6345 13.3593 94.0156 12.9946 94.3235 12.5215C94.6314 12.0484 94.866 11.4718 95.0273 10.7917C95.1885 10.1116 95.2692 9.34767 95.2692 8.5C95.2692 7.65233 95.1885 6.88844 95.0273 6.20833C94.866 5.52823 94.6314 4.95161 94.3235 4.47849C94.0156 4.00538 93.6345 3.64068 93.18 3.38441C92.7255 3.12814 92.205 3 91.6186 3C91.0321 3 90.5092 3.12814 90.0499 3.38441C89.5905 3.64068 89.2044 4.00538 88.8916 4.47849C88.5789 4.95161 88.3418 5.52823 88.1806 6.20833C88.0193 6.88844 87.9387 7.65233 87.9387 8.5C87.9387 9.34767 88.0193 10.1116 88.1806 10.7917C88.3418 11.4718 88.5789 12.0484 88.8916 12.5215C89.2044 12.9946 89.5905 13.3593 90.0499 13.6156C90.5092 13.8719 91.0321 14 91.6186 14ZM90.6509 12.0706C90.8953 12.3515 91.2178 12.4919 91.6186 12.4919C92.0095 12.4919 92.3272 12.3515 92.5715 12.0706C92.8159 11.7897 93.004 11.4471 93.136 11.043C93.2679 10.6389 93.3559 10.2052 93.3999 9.74194C93.4439 9.27867 93.4659 8.8647 93.4659 8.5C93.4659 8.1353 93.4439 7.72133 93.3999 7.25806C93.3559 6.7948 93.2679 6.35618 93.136 5.9422C93.004 5.52823 92.8159 5.18078 92.5715 4.89987C92.3272 4.61895 92.0095 4.47849 91.6186 4.47849C91.2178 4.47849 90.8953 4.61895 90.6509 4.89987C90.4066 5.18078 90.2185 5.52823 90.0865 5.9422C89.9546 6.35618 89.8641 6.7948 89.8153 7.25806C89.7664 7.72133 89.742 8.1353 89.742 8.5C89.742 8.8647 89.7664 9.27867 89.8153 9.74194C89.8641 10.2052 89.9546 10.6389 90.0865 11.043C90.2185 11.4471 90.4066 11.7897 90.6509 12.0706ZM106.833 13.7339V12.1075H102.156L105.147 9.22446C105.381 9.00762 105.599 8.78338 105.799 8.55175C105.999 8.32012 106.175 8.07616 106.327 7.81989C106.478 7.56362 106.598 7.2901 106.686 6.99933C106.774 6.70856 106.818 6.39561 106.818 6.06048C106.818 5.5578 106.723 5.11671 106.532 4.73723C106.342 4.35775 106.085 4.03741 105.762 3.77621C105.44 3.51501 105.071 3.32034 104.656 3.1922C104.24 3.06407 103.808 3 103.358 3C102.879 3 102.437 3.07639 102.031 3.22917C101.626 3.38194 101.271 3.5914 100.968 3.85753C100.665 4.12366 100.416 4.43907 100.221 4.80376C100.025 5.16846 99.9029 5.56765 99.854 6.00134L101.569 6.26747C101.638 5.75493 101.823 5.32863 102.126 4.98858C102.429 4.64852 102.83 4.47849 103.329 4.47849C103.798 4.47849 104.191 4.62388 104.509 4.91465C104.827 5.20542 104.985 5.59722 104.985 6.09005C104.985 6.50403 104.89 6.87119 104.699 7.19153C104.509 7.51187 104.252 7.82975 103.93 8.14516L99.9273 12.1075V13.7339H106.833ZM113.325 13.793C112.886 13.931 112.416 14 111.918 14C111.42 14 110.95 13.931 110.511 13.793C110.071 13.655 109.687 13.448 109.36 13.172C109.032 12.8961 108.773 12.5585 108.583 12.1593C108.392 11.7601 108.297 11.2993 108.297 10.7769C108.297 10.4418 108.351 10.1313 108.458 9.84543C108.566 9.55959 108.71 9.30824 108.891 9.0914C109.071 8.87455 109.279 8.69467 109.514 8.55175C109.748 8.40883 109.993 8.30287 110.247 8.23387V8.2043C109.778 8.03674 109.391 7.76568 109.088 7.39113C108.785 7.01658 108.634 6.52375 108.634 5.91263C108.634 5.46909 108.719 5.06743 108.891 4.70766C109.062 4.34789 109.296 4.04234 109.594 3.79099C109.892 3.53965 110.239 3.34498 110.635 3.20699C111.031 3.069 111.459 3 111.918 3C112.368 3 112.793 3.06407 113.194 3.1922C113.594 3.32034 113.944 3.50762 114.242 3.75403C114.54 4.00045 114.774 4.29861 114.946 4.64852C115.117 4.99843 115.202 5.39516 115.202 5.83871C115.202 6.44982 115.051 6.95744 114.748 7.36156C114.445 7.76568 114.059 8.04659 113.589 8.2043V8.23387C113.863 8.30287 114.117 8.41375 114.352 8.56653C114.586 8.71931 114.792 8.90659 114.968 9.12836C115.143 9.35013 115.283 9.59901 115.385 9.875C115.488 10.151 115.539 10.4516 115.539 10.7769C115.539 11.2993 115.444 11.7601 115.253 12.1593C115.063 12.5585 114.804 12.8961 114.476 13.172C114.149 13.448 113.765 13.655 113.325 13.793ZM111.918 7.46505C111.459 7.46505 111.095 7.3172 110.826 7.02151C110.557 6.72581 110.423 6.36604 110.423 5.9422C110.423 5.4888 110.562 5.12903 110.84 4.8629C111.119 4.59677 111.478 4.46371 111.918 4.46371C112.114 4.46371 112.302 4.49821 112.482 4.5672C112.663 4.6362 112.825 4.73477 112.966 4.8629C113.108 4.99104 113.22 5.14628 113.303 5.32863C113.387 5.51098 113.428 5.7155 113.428 5.9422C113.428 6.14919 113.389 6.34633 113.311 6.5336C113.233 6.72088 113.125 6.88351 112.988 7.02151C112.851 7.1595 112.69 7.26792 112.504 7.34677C112.319 7.42563 112.123 7.46505 111.918 7.46505ZM110.628 12.0484C110.97 12.3539 111.4 12.5067 111.918 12.5067C112.426 12.5067 112.851 12.3539 113.194 12.0484C113.536 11.7428 113.707 11.3141 113.707 10.7621C113.707 10.5058 113.66 10.2668 113.567 10.045C113.475 9.82325 113.347 9.63351 113.186 9.47581C113.025 9.3181 112.834 9.19489 112.614 9.10618C112.395 9.01747 112.162 8.97312 111.918 8.97312C111.664 8.97312 111.427 9.01747 111.207 9.10618C110.987 9.19489 110.796 9.31564 110.635 9.46841C110.474 9.62119 110.347 9.80847 110.254 10.0302C110.161 10.252 110.115 10.496 110.115 10.7621C110.115 11.3141 110.286 11.7428 110.628 12.0484ZM123.716 14C124.303 14 124.823 13.8719 125.277 13.6156C125.732 13.3593 126.113 12.9946 126.421 12.5215C126.729 12.0484 126.964 11.4718 127.125 10.7917C127.286 10.1116 127.367 9.34767 127.367 8.5C127.367 7.65233 127.286 6.88844 127.125 6.20833C126.964 5.52823 126.729 4.95161 126.421 4.47849C126.113 4.00538 125.732 3.64068 125.277 3.38441C124.823 3.12814 124.303 3 123.716 3C123.13 3 122.607 3.12814 122.147 3.38441C121.688 3.64068 121.302 4.00538 120.989 4.47849C120.676 4.95161 120.439 5.52823 120.278 6.20833C120.117 6.88844 120.036 7.65233 120.036 8.5C120.036 9.34767 120.117 10.1116 120.278 10.7917C120.439 11.4718 120.676 12.0484 120.989 12.5215C121.302 12.9946 121.688 13.3593 122.147 13.6156C122.607 13.8719 123.13 14 123.716 14ZM122.748 12.0706C122.993 12.3515 123.315 12.4919 123.716 12.4919C124.107 12.4919 124.425 12.3515 124.669 12.0706C124.913 11.7897 125.102 11.4471 125.234 11.043C125.365 10.6389 125.453 10.2052 125.497 9.74194C125.541 9.27867 125.563 8.8647 125.563 8.5C125.563 8.1353 125.541 7.72133 125.497 7.25806C125.453 6.7948 125.365 6.35618 125.234 5.9422C125.102 5.52823 124.913 5.18078 124.669 4.89987C124.425 4.61895 124.107 4.47849 123.716 4.47849C123.315 4.47849 122.993 4.61895 122.748 4.89987C122.504 5.18078 122.316 5.52823 122.184 5.9422C122.052 6.35618 121.962 6.7948 121.913 7.25806C121.864 7.72133 121.839 8.1353 121.839 8.5C121.839 8.8647 121.864 9.27867 121.913 9.74194C121.962 10.2052 122.052 10.6389 122.184 11.043C122.316 11.4471 122.504 11.7897 122.748 12.0706ZM132.217 14C132.745 14 133.241 13.9138 133.706 13.7413C134.17 13.5688 134.571 13.3224 134.908 13.002C135.245 12.6817 135.511 12.2948 135.707 11.8414C135.902 11.388 136 10.8853 136 10.3333C136 9.86022 135.914 9.41913 135.743 9.01008C135.572 8.60103 135.335 8.24619 135.032 7.94556C134.729 7.64494 134.378 7.40838 133.977 7.23589C133.576 7.0634 133.146 6.97715 132.687 6.97715C132.511 6.97715 132.318 6.99194 132.108 7.02151C131.897 7.05108 131.724 7.09543 131.587 7.15457L131.572 7.13978L134.226 3.26613H132.086L129.491 7.3172C129.324 7.58333 129.175 7.83961 129.043 8.08602C128.911 8.33244 128.799 8.57639 128.706 8.81788C128.613 9.05936 128.542 9.31071 128.494 9.57191C128.445 9.83311 128.42 10.1116 128.42 10.4073C128.42 10.9099 128.516 11.3806 128.706 11.8192C128.897 12.2578 129.163 12.6398 129.505 12.9651C129.847 13.2903 130.248 13.5441 130.707 13.7265C131.167 13.9088 131.67 14 132.217 14ZM131.382 12.3293C131.626 12.4377 131.9 12.4919 132.203 12.4919C132.799 12.4919 133.28 12.3022 133.647 11.9227C134.013 11.5432 134.197 11.043 134.197 10.422C134.197 10.1263 134.15 9.85282 134.057 9.60148C133.965 9.35013 133.83 9.13575 133.654 8.95833C133.478 8.78091 133.271 8.64046 133.031 8.53696C132.792 8.43347 132.525 8.38172 132.232 8.38172C131.939 8.38172 131.668 8.431 131.418 8.52957C131.169 8.62814 130.954 8.76859 130.773 8.95094C130.593 9.13329 130.453 9.3526 130.356 9.60887C130.258 9.86514 130.209 10.1461 130.209 10.4516C130.209 10.7276 130.255 10.9888 130.348 11.2352C130.441 11.4816 130.575 11.6985 130.751 11.8858C130.927 12.073 131.137 12.2209 131.382 12.3293Z" fill="white"/>
</svg>
