<svg width="106" height="30" viewBox="0 0 106 30" fill="none" xmlns="http://www.w3.org/2000/svg">
<path fill-rule="evenodd" clip-rule="evenodd" d="M23.4503 14.8672C23.4503 16.5569 23.2436 18.1431 22.8227 19.6261C22.4018 21.1091 21.7742 22.4447 20.9325 23.6326C20.0834 24.8279 19.0349 25.8534 17.7724 26.7167C16.5098 27.5799 15.0331 28.2514 13.3496 28.7237C12.3823 28.9967 11.3339 29.1884 10.2116 29.2991C9.08931 29.4098 7.86361 29.4614 6.55673 29.4614H0V0.538575H6.62315C7.93003 0.538575 9.14827 0.59028 10.278 0.700993C11.4002 0.811617 12.4488 1.00351 13.4087 1.27643C15.0995 1.74867 16.5763 2.41277 17.8387 3.26125C19.094 4.10973 20.1425 5.1206 20.9694 6.27896C21.8038 7.43735 22.4241 8.74329 22.8301 10.1894C23.2436 11.6356 23.4503 13.1998 23.4503 14.8672ZM19.729 14.8672C19.729 12.093 19.1236 9.83528 17.9127 8.10145C16.7018 6.37483 14.9593 5.1501 12.6998 4.427C11.836 4.15396 10.8687 3.96951 9.79809 3.86619C8.73492 3.77026 7.53135 3.7187 6.18749 3.7187H3.52945V26.2814H6.18749C7.53135 26.2814 8.73492 26.2297 9.79809 26.1338C10.8687 26.0305 11.836 25.846 12.6998 25.573C14.9593 24.8501 16.7018 23.5884 17.9127 21.7881C19.1236 19.9878 19.729 17.6784 19.729 14.8672ZM41.2866 16.6675C43.0722 19.2034 44.8086 21.8396 46.5437 24.5328H46.6692C46.4847 21.7216 46.3887 18.8515 46.3887 15.9297V0.538575H49.918V29.4614H46.4109L35.0549 13.3325C33.0843 10.5336 31.3409 7.90216 29.7977 5.46737H29.6722C29.8568 8.10145 29.9528 11.1783 29.9528 14.6975V29.4614H26.4234V0.538575H29.9307L41.2866 16.6675ZM68.4882 29.4614H66.8639L59.5762 12.189C58.5726 9.80988 57.5605 7.2234 56.5489 4.427H56.3791C56.5785 8.44813 56.6819 12.1303 56.6819 15.4723V29.4614H53.1525V0.538575H58.2398L65.0475 16.9037C65.8274 18.7783 66.6866 21.028 67.6244 23.6695H67.7351C68.7687 20.7403 69.6412 18.4967 70.3046 16.9037L77.1197 0.538575H82.2069V29.4614H78.6776V15.4723C78.6776 12.2036 78.781 8.52189 78.9803 4.427H78.8105C77.7398 7.38564 76.722 9.96609 75.7833 12.189L68.4882 29.4614ZM99.7904 3.13578C98.1956 3.13578 96.697 3.38896 95.3011 3.90315C93.9142 4.4139 92.7037 5.17441 91.6833 6.19039C90.6591 7.21007 89.8521 8.47027 89.2614 9.97546C88.6707 11.4806 88.368 13.2367 88.368 15.2361C88.368 17.2283 88.649 18.9551 89.195 20.4157C89.741 21.8761 90.5165 23.0867 91.5282 24.0458C92.5398 25.0049 93.7503 25.716 95.1757 26.1781C96.5923 26.6375 98.1807 26.8643 99.9234 26.8643C100.396 26.8643 100.906 26.8417 101.437 26.7905C101.968 26.7393 102.508 26.6716 103.047 26.5765C103.592 26.4804 104.118 26.377 104.627 26.252C105.136 26.1269 105.594 25.9936 106 25.8534V28.9671C105.151 29.2991 104.162 29.5546 103.039 29.7344C101.911 29.9153 100.758 30 99.5763 30C97.1693 30 95.0354 29.6681 93.1747 28.9967C91.3141 28.3253 89.7502 27.3638 88.4935 26.1118C87.2331 24.856 86.2674 23.3234 85.6213 21.5151C84.976 19.7089 84.6541 17.6562 84.6541 15.3689C84.6541 13.1185 84.9941 11.0522 85.6804 9.16388C86.3666 7.27534 87.3512 5.65306 88.6412 4.30153C89.9348 2.94599 91.5003 1.89161 93.3372 1.13625C95.1765 0.379793 97.2431 0 99.5321 0C100.137 0 100.736 0.0222017 101.326 0.0738183C101.917 0.125376 102.486 0.196681 103.024 0.287764C103.571 0.380355 104.065 0.497187 104.531 0.627175C104.987 0.754709 105.387 0.892885 105.719 1.03301V4.1466C104.856 3.85892 103.911 3.61949 102.884 3.42349C101.866 3.22914 100.832 3.13578 99.7904 3.13578Z" fill="black"/>
</svg>
