<svg width="187" height="27" viewBox="0 0 187 27" fill="none" xmlns="http://www.w3.org/2000/svg">
<path fill-rule="evenodd" clip-rule="evenodd" d="M6.67519 16.2912C10.4025 21.7473 14.573 23.4975 16.1607 23.8698C17.4563 22.5145 18.1128 21.3226 18.6041 20.2404C17.6909 18.9414 16.2771 17.5306 14.911 16.6361L12.8463 18.1179C12.2776 17.848 10.7598 16.8652 9.15269 14.5136C7.54619 12.1616 7.16428 10.3638 7.11132 9.72382L9.1764 8.24262C8.8236 6.62115 8.01367 4.77708 7.13494 3.45334C5.97457 3.55621 4.65706 3.78066 2.97105 4.56447C2.7693 6.22075 2.94734 10.8355 6.67519 16.2912Z" fill="#5470BB"/>
<path d="M32.96 16L34.56 8H34.96L33.36 16H32.96ZM29.82 12.2L29.9 11.82H38.12L38.04 12.2H29.82ZM41.1133 19L50.1133 5.24L50.3733 5.38H41.0533L41.2733 5.22L40.6733 8.2H40.2733L40.9133 5H50.6333L50.5733 5.3L41.6133 19H41.1133ZM56.3941 19L65.3941 5.24L65.6541 5.38H56.3341L56.5541 5.22L55.9541 8.2H55.5541L56.1941 5H65.9141L65.8541 5.3L56.8941 19H56.3941ZM69.727 19.06C68.847 19.06 68.087 18.8667 67.447 18.48C66.8203 18.08 66.3403 17.5133 66.007 16.78C65.6737 16.0467 65.507 15.1667 65.507 14.14C65.507 12.9933 65.6603 11.88 65.967 10.8C66.287 9.70667 66.7403 8.72 67.327 7.84C67.9137 6.94667 68.627 6.24 69.467 5.72C70.3203 5.2 71.287 4.94 72.367 4.94C73.2603 4.94 74.0203 5.14 74.647 5.54C75.2737 5.92667 75.7537 6.48667 76.087 7.22C76.4203 7.95333 76.587 8.83333 76.587 9.86C76.587 10.9933 76.427 12.1067 76.107 13.2C75.8003 14.2933 75.3537 15.2867 74.767 16.18C74.1803 17.06 73.4603 17.76 72.607 18.28C71.767 18.8 70.807 19.06 69.727 19.06ZM69.787 18.68C70.8003 18.68 71.707 18.4267 72.507 17.92C73.307 17.4 73.9803 16.7133 74.527 15.86C75.087 15.0067 75.507 14.06 75.787 13.02C76.0803 11.9667 76.227 10.9067 76.227 9.84C76.227 8.41333 75.8803 7.30667 75.187 6.52C74.507 5.72 73.547 5.32 72.307 5.32C71.2937 5.32 70.387 5.58 69.587 6.1C68.787 6.60667 68.107 7.28667 67.547 8.14C67.0003 8.99333 66.5803 9.94667 66.287 11C66.007 12.04 65.867 13.0933 65.867 14.16C65.867 15.5867 66.207 16.7 66.887 17.5C67.5803 18.2867 68.547 18.68 69.787 18.68ZM82.3111 19.06C81.2978 19.06 80.4245 18.92 79.6911 18.64C78.9711 18.3467 78.4178 17.94 78.0311 17.42C77.6578 16.8867 77.4711 16.2533 77.4711 15.52C77.4711 14.7067 77.6845 14.0067 78.1111 13.42C78.5511 12.82 79.1711 12.36 79.9711 12.04C80.7845 11.7067 81.7511 11.54 82.8711 11.54C83.8978 11.54 84.7711 11.68 85.4911 11.96C86.2245 12.2267 86.7845 12.62 87.1711 13.14C87.5578 13.6467 87.7511 14.26 87.7511 14.98C87.7511 15.8067 87.5245 16.5267 87.0711 17.14C86.6311 17.7533 86.0045 18.2267 85.1911 18.56C84.3778 18.8933 83.4178 19.06 82.3111 19.06ZM82.3511 18.68C83.9111 18.68 85.1378 18.3467 86.0311 17.68C86.9245 17.0133 87.3711 16.12 87.3711 15C87.3711 14.04 86.9711 13.28 86.1711 12.72C85.3711 12.16 84.2578 11.88 82.8311 11.88C81.2711 11.88 80.0511 12.2133 79.1711 12.88C78.2911 13.5467 77.8511 14.4333 77.8511 15.54C77.8511 16.5133 78.2445 17.28 79.0311 17.84C79.8178 18.4 80.9245 18.68 82.3511 18.68ZM83.7511 11.84C82.8178 11.84 82.0178 11.7133 81.3511 11.46C80.6978 11.2067 80.1978 10.8467 79.8511 10.38C79.5178 9.91333 79.3511 9.36 79.3511 8.72C79.3511 7.94667 79.5445 7.28 79.9311 6.72C80.3311 6.14667 80.8978 5.70667 81.6311 5.4C82.3645 5.09333 83.2311 4.94 84.2311 4.94C85.1245 4.94 85.8978 5.07333 86.5511 5.34C87.2178 5.59333 87.7311 5.96667 88.0911 6.46C88.4645 6.94 88.6511 7.51333 88.6511 8.18C88.6511 8.91333 88.4578 9.56 88.0711 10.12C87.6845 10.6667 87.1245 11.0933 86.3911 11.4C85.6578 11.6933 84.7778 11.84 83.7511 11.84ZM83.7911 11.5C85.1778 11.5 86.2645 11.2 87.0511 10.6C87.8511 10 88.2511 9.21333 88.2511 8.24C88.2511 7.33333 87.8845 6.62 87.1511 6.1C86.4311 5.58 85.4445 5.32 84.1911 5.32C82.8445 5.32 81.7711 5.62 80.9711 6.22C80.1711 6.82 79.7711 7.62667 79.7711 8.64C79.7711 9.50667 80.1178 10.2 80.8111 10.72C81.5045 11.24 82.4978 11.5 83.7911 11.5ZM92.8261 19L92.8861 18.7L100.286 12.58C101.046 11.9533 101.633 11.3933 102.046 10.9C102.473 10.3933 102.773 9.91333 102.946 9.46C103.119 9.00667 103.206 8.53333 103.206 8.04C103.206 7.21333 102.913 6.55333 102.326 6.06C101.753 5.56667 100.853 5.32 99.6261 5.32C98.7728 5.32 97.9594 5.46667 97.1861 5.76C96.4128 6.05333 95.7728 6.47333 95.2661 7.02L94.9661 6.74C95.5261 6.15333 96.2194 5.70667 97.0461 5.4C97.8728 5.09333 98.7394 4.94 99.6461 4.94C100.539 4.94 101.279 5.07333 101.866 5.34C102.453 5.59333 102.886 5.95333 103.166 6.42C103.459 6.87333 103.606 7.40667 103.606 8.02C103.606 8.54 103.513 9.04667 103.326 9.54C103.139 10.0333 102.826 10.5533 102.386 11.1C101.946 11.6333 101.339 12.22 100.566 12.86L93.3461 18.82L93.1261 18.62H102.266L102.186 19H92.8261ZM109.197 19.06C108.184 19.06 107.31 18.92 106.577 18.64C105.857 18.3467 105.304 17.94 104.917 17.42C104.544 16.8867 104.357 16.2533 104.357 15.52C104.357 14.7067 104.57 14.0067 104.997 13.42C105.437 12.82 106.057 12.36 106.857 12.04C107.67 11.7067 108.637 11.54 109.757 11.54C110.784 11.54 111.657 11.68 112.377 11.96C113.11 12.2267 113.67 12.62 114.057 13.14C114.444 13.6467 114.637 14.26 114.637 14.98C114.637 15.8067 114.41 16.5267 113.957 17.14C113.517 17.7533 112.89 18.2267 112.077 18.56C111.264 18.8933 110.304 19.06 109.197 19.06ZM109.237 18.68C110.797 18.68 112.024 18.3467 112.917 17.68C113.81 17.0133 114.257 16.12 114.257 15C114.257 14.04 113.857 13.28 113.057 12.72C112.257 12.16 111.144 11.88 109.717 11.88C108.157 11.88 106.937 12.2133 106.057 12.88C105.177 13.5467 104.737 14.4333 104.737 15.54C104.737 16.5133 105.13 17.28 105.917 17.84C106.704 18.4 107.81 18.68 109.237 18.68ZM110.637 11.84C109.704 11.84 108.904 11.7133 108.237 11.46C107.584 11.2067 107.084 10.8467 106.737 10.38C106.404 9.91333 106.237 9.36 106.237 8.72C106.237 7.94667 106.43 7.28 106.817 6.72C107.217 6.14667 107.784 5.70667 108.517 5.4C109.25 5.09333 110.117 4.94 111.117 4.94C112.01 4.94 112.784 5.07333 113.437 5.34C114.104 5.59333 114.617 5.96667 114.977 6.46C115.35 6.94 115.537 7.51333 115.537 8.18C115.537 8.91333 115.344 9.56 114.957 10.12C114.57 10.6667 114.01 11.0933 113.277 11.4C112.544 11.6933 111.664 11.84 110.637 11.84ZM110.677 11.5C112.064 11.5 113.15 11.2 113.937 10.6C114.737 10 115.137 9.21333 115.137 8.24C115.137 7.33333 114.77 6.62 114.037 6.1C113.317 5.58 112.33 5.32 111.077 5.32C109.73 5.32 108.657 5.62 107.857 6.22C107.057 6.82 106.657 7.62667 106.657 8.64C106.657 9.50667 107.004 10.2 107.697 10.72C108.39 11.24 109.384 11.5 110.677 11.5ZM121.015 19.06C120.135 19.06 119.375 18.8667 118.735 18.48C118.108 18.08 117.628 17.5133 117.295 16.78C116.961 16.0467 116.795 15.1667 116.795 14.14C116.795 12.9933 116.948 11.88 117.255 10.8C117.575 9.70667 118.028 8.72 118.615 7.84C119.201 6.94667 119.915 6.24 120.755 5.72C121.608 5.2 122.575 4.94 123.655 4.94C124.548 4.94 125.308 5.14 125.935 5.54C126.561 5.92667 127.041 6.48667 127.375 7.22C127.708 7.95333 127.875 8.83333 127.875 9.86C127.875 10.9933 127.715 12.1067 127.395 13.2C127.088 14.2933 126.641 15.2867 126.055 16.18C125.468 17.06 124.748 17.76 123.895 18.28C123.055 18.8 122.095 19.06 121.015 19.06ZM121.075 18.68C122.088 18.68 122.995 18.4267 123.795 17.92C124.595 17.4 125.268 16.7133 125.815 15.86C126.375 15.0067 126.795 14.06 127.075 13.02C127.368 11.9667 127.515 10.9067 127.515 9.84C127.515 8.41333 127.168 7.30667 126.475 6.52C125.795 5.72 124.835 5.32 123.595 5.32C122.581 5.32 121.675 5.58 120.875 6.1C120.075 6.60667 119.395 7.28667 118.835 8.14C118.288 8.99333 117.868 9.94667 117.575 11C117.295 12.04 117.155 13.0933 117.155 14.16C117.155 15.5867 117.495 16.7 118.175 17.5C118.868 18.2867 119.835 18.68 121.075 18.68ZM132.196 19L132.256 18.7L139.656 12.58C140.416 11.9533 141.003 11.3933 141.416 10.9C141.843 10.3933 142.143 9.91333 142.316 9.46C142.49 9.00667 142.576 8.53333 142.576 8.04C142.576 7.21333 142.283 6.55333 141.696 6.06C141.123 5.56667 140.223 5.32 138.996 5.32C138.143 5.32 137.33 5.46667 136.556 5.76C135.783 6.05333 135.143 6.47333 134.636 7.02L134.336 6.74C134.896 6.15333 135.59 5.70667 136.416 5.4C137.243 5.09333 138.11 4.94 139.016 4.94C139.91 4.94 140.65 5.07333 141.236 5.34C141.823 5.59333 142.256 5.95333 142.536 6.42C142.83 6.87333 142.976 7.40667 142.976 8.02C142.976 8.54 142.883 9.04667 142.696 9.54C142.51 10.0333 142.196 10.5533 141.756 11.1C141.316 11.6333 140.71 12.22 139.936 12.86L132.716 18.82L132.496 18.62H141.636L141.556 19H132.196ZM148.567 19.06C147.554 19.06 146.681 18.92 145.947 18.64C145.227 18.3467 144.674 17.94 144.287 17.42C143.914 16.8867 143.727 16.2533 143.727 15.52C143.727 14.7067 143.941 14.0067 144.367 13.42C144.807 12.82 145.427 12.36 146.227 12.04C147.041 11.7067 148.007 11.54 149.127 11.54C150.154 11.54 151.027 11.68 151.747 11.96C152.481 12.2267 153.041 12.62 153.427 13.14C153.814 13.6467 154.007 14.26 154.007 14.98C154.007 15.8067 153.781 16.5267 153.327 17.14C152.887 17.7533 152.261 18.2267 151.447 18.56C150.634 18.8933 149.674 19.06 148.567 19.06ZM148.607 18.68C150.167 18.68 151.394 18.3467 152.287 17.68C153.181 17.0133 153.627 16.12 153.627 15C153.627 14.04 153.227 13.28 152.427 12.72C151.627 12.16 150.514 11.88 149.087 11.88C147.527 11.88 146.307 12.2133 145.427 12.88C144.547 13.5467 144.107 14.4333 144.107 15.54C144.107 16.5133 144.501 17.28 145.287 17.84C146.074 18.4 147.181 18.68 148.607 18.68ZM150.007 11.84C149.074 11.84 148.274 11.7133 147.607 11.46C146.954 11.2067 146.454 10.8467 146.107 10.38C145.774 9.91333 145.607 9.36 145.607 8.72C145.607 7.94667 145.801 7.28 146.187 6.72C146.587 6.14667 147.154 5.70667 147.887 5.4C148.621 5.09333 149.487 4.94 150.487 4.94C151.381 4.94 152.154 5.07333 152.807 5.34C153.474 5.59333 153.987 5.96667 154.347 6.46C154.721 6.94 154.907 7.51333 154.907 8.18C154.907 8.91333 154.714 9.56 154.327 10.12C153.941 10.6667 153.381 11.0933 152.647 11.4C151.914 11.6933 151.034 11.84 150.007 11.84ZM150.047 11.5C151.434 11.5 152.521 11.2 153.307 10.6C154.107 10 154.507 9.21333 154.507 8.24C154.507 7.33333 154.141 6.62 153.407 6.1C152.687 5.58 151.701 5.32 150.447 5.32C149.101 5.32 148.027 5.62 147.227 6.22C146.427 6.82 146.027 7.62667 146.027 8.64C146.027 9.50667 146.374 10.2 147.067 10.72C147.761 11.24 148.754 11.5 150.047 11.5ZM164.822 19.06C163.942 19.06 163.182 18.8667 162.542 18.48C161.916 18.08 161.436 17.5133 161.102 16.78C160.769 16.0467 160.602 15.1667 160.602 14.14C160.602 12.9933 160.756 11.88 161.062 10.8C161.382 9.70667 161.836 8.72 162.422 7.84C163.009 6.94667 163.722 6.24 164.562 5.72C165.416 5.2 166.382 4.94 167.462 4.94C168.356 4.94 169.116 5.14 169.742 5.54C170.369 5.92667 170.849 6.48667 171.182 7.22C171.516 7.95333 171.682 8.83333 171.682 9.86C171.682 10.9933 171.522 12.1067 171.202 13.2C170.896 14.2933 170.449 15.2867 169.862 16.18C169.276 17.06 168.556 17.76 167.702 18.28C166.862 18.8 165.902 19.06 164.822 19.06ZM164.882 18.68C165.896 18.68 166.802 18.4267 167.602 17.92C168.402 17.4 169.076 16.7133 169.622 15.86C170.182 15.0067 170.602 14.06 170.882 13.02C171.176 11.9667 171.322 10.9067 171.322 9.84C171.322 8.41333 170.976 7.30667 170.282 6.52C169.602 5.72 168.642 5.32 167.402 5.32C166.389 5.32 165.482 5.58 164.682 6.1C163.882 6.60667 163.202 7.28667 162.642 8.14C162.096 8.99333 161.676 9.94667 161.382 11C161.102 12.04 160.962 13.0933 160.962 14.16C160.962 15.5867 161.302 16.7 161.982 17.5C162.676 18.2867 163.642 18.68 164.882 18.68ZM177.866 19.06C176.933 19.06 176.1 18.8667 175.366 18.48C174.646 18.0933 174.08 17.5133 173.666 16.74C173.266 15.9533 173.066 14.9733 173.066 13.8C173.066 12.9867 173.146 12.1667 173.306 11.34C173.466 10.5 173.72 9.7 174.066 8.94C174.426 8.18 174.886 7.5 175.446 6.9C176.02 6.3 176.713 5.82667 177.526 5.48C178.353 5.12 179.313 4.94 180.406 4.94C180.98 4.94 181.526 4.99333 182.046 5.1C182.566 5.19333 183.033 5.37333 183.446 5.64L183.206 6C182.833 5.74667 182.4 5.57333 181.906 5.48C181.413 5.37333 180.9 5.32 180.366 5.32C179.326 5.32 178.42 5.49333 177.646 5.84C176.873 6.17333 176.22 6.63333 175.686 7.22C175.153 7.80667 174.72 8.47333 174.386 9.22C174.066 9.95333 173.833 10.7267 173.686 11.54C173.54 12.34 173.466 13.1333 173.466 13.92C173.466 14.1333 173.466 14.3067 173.466 14.44C173.48 14.5733 173.493 14.6933 173.506 14.8L173.326 14.94C173.473 13.9667 173.8 13.1867 174.306 12.6C174.813 12 175.42 11.5667 176.126 11.3C176.833 11.02 177.546 10.88 178.266 10.88C179.12 10.88 179.873 11.0333 180.526 11.34C181.193 11.6333 181.713 12.0667 182.086 12.64C182.473 13.2 182.666 13.8867 182.666 14.7C182.666 15.6067 182.466 16.3867 182.066 17.04C181.666 17.6933 181.106 18.1933 180.386 18.54C179.666 18.8867 178.826 19.06 177.866 19.06ZM177.886 18.68C179.22 18.68 180.28 18.3267 181.066 17.62C181.866 16.9133 182.266 15.9533 182.266 14.74C182.266 13.6067 181.886 12.7467 181.126 12.16C180.38 11.56 179.42 11.26 178.246 11.26C177.353 11.26 176.56 11.44 175.866 11.8C175.186 12.1467 174.653 12.62 174.266 13.22C173.893 13.8067 173.706 14.46 173.706 15.18C173.706 15.7267 173.86 16.2733 174.166 16.82C174.473 17.3533 174.933 17.8 175.546 18.16C176.173 18.5067 176.953 18.68 177.886 18.68Z" fill="white"/>
</svg>
