<svg width="15" height="16" viewBox="0 0 15 16" fill="none" xmlns="http://www.w3.org/2000/svg">
<path fill-rule="evenodd" clip-rule="evenodd" d="M11.09 14.83C10.0567 15.1833 8.93333 15.36 7.72 15.36C6.58667 15.36 5.54667 15.1766 4.6 14.81C3.65333 14.4433 2.84 13.9333 2.16 13.28C1.48 12.6266 0.95 11.8433 0.57 10.93C0.19 10.0166 0 9.01998 0 7.93998C0 6.87331 0.203333 5.88665 0.61 4.97998C1.01667 4.07331 1.56667 3.28665 2.26 2.61998C2.95333 1.95331 3.76667 1.42998 4.7 1.04998C5.63333 0.66998 6.63333 0.47998 7.7 0.47998C8.63333 0.47998 9.53667 0.616647 10.41 0.88998C11.2833 1.16331 12.05 1.57331 12.71 2.11998C13.37 2.66665 13.9 3.34331 14.3 4.14998C14.7 4.95665 14.9 5.89998 14.9 6.97998C14.9 7.73998 14.7967 8.41998 14.59 9.01998C14.3833 9.61998 14.0933 10.1266 13.72 10.54C13.3467 10.9533 12.91 11.2666 12.41 11.48C11.91 11.6933 11.3733 11.8 10.8 11.8C10.2667 11.8 9.83 11.6833 9.49 11.45C9.15 11.2166 8.95333 10.9066 8.9 10.52H8.82C8.63333 10.8266 8.34 11.1166 7.94 11.39C7.54 11.6633 7.04 11.8 6.44 11.8C5.98667 11.8 5.58333 11.7166 5.23 11.55C4.87667 11.3833 4.57667 11.15 4.33 10.85C4.08333 10.55 3.89333 10.1933 3.76 9.77998C3.62667 9.36665 3.56 8.91331 3.56 8.41998C3.56 7.85998 3.65 7.30998 3.83 6.76998C4.01 6.22998 4.27 5.74998 4.61 5.32998C4.95 4.90998 5.35333 4.56998 5.82 4.30998C6.28667 4.04998 6.81333 3.91998 7.4 3.91998C7.90667 3.91998 8.32667 4.02665 8.66 4.23998C8.99333 4.45331 9.20667 4.70665 9.3 4.99998H9.32L9.46 4.31998H11.62L11 7.45998C10.9333 7.77998 10.8733 8.08665 10.82 8.37998C10.7667 8.67331 10.74 8.91998 10.74 9.11998C10.74 9.30665 10.78 9.47331 10.86 9.61998C10.94 9.76665 11.0933 9.83998 11.32 9.83998C11.72 9.83998 12.0767 9.60998 12.39 9.14998C12.7033 8.68998 12.86 7.99331 12.86 7.05998C12.86 6.28665 12.7333 5.60331 12.48 5.00998C12.2267 4.41665 11.87 3.91998 11.41 3.51998C10.95 3.11998 10.4033 2.81665 9.77 2.60998C9.13667 2.40331 8.44 2.29998 7.68 2.29998C6.86667 2.29998 6.12333 2.44331 5.45 2.72998C4.77667 3.01665 4.2 3.40998 3.72 3.90998C3.24 4.40998 2.86667 5.00665 2.6 5.69998C2.33333 6.39331 2.2 7.13998 2.2 7.93998C2.2 8.79331 2.34 9.55998 2.62 10.24C2.9 10.92 3.29667 11.5 3.81 11.98C4.32333 12.46 4.93 12.83 5.63 13.09C6.33 13.35 7.1 13.48 7.94 13.48C8.9 13.48 9.75667 13.33 10.51 13.03C11.2633 12.73 11.94 12.3066 12.54 11.76L13.8 13.16C13.0267 13.92 12.1233 14.4766 11.09 14.83ZM6.17 9.36998C6.32333 9.66998 6.61333 9.81998 7.04 9.81998C7.33333 9.81998 7.58667 9.74331 7.8 9.58998C8.01333 9.43665 8.18667 9.23998 8.32 8.99998C8.45333 8.75998 8.55333 8.49998 8.62 8.21998C8.68667 7.93998 8.72 7.67331 8.72 7.41998C8.72 7.21998 8.70333 7.02665 8.67 6.83998C8.63667 6.65331 8.58 6.48665 8.5 6.33998C8.42 6.19331 8.30667 6.07665 8.16 5.98998C8.01333 5.90331 7.82667 5.85998 7.6 5.85998C7.34667 5.85998 7.12 5.93665 6.92 6.08998C6.72 6.24331 6.54667 6.44331 6.4 6.68998C6.25333 6.93665 6.14 7.21331 6.06 7.51998C5.98 7.82665 5.94 8.12665 5.94 8.41998C5.94 8.75331 6.01667 9.06998 6.17 9.36998Z" fill="#007CE2"/>
</svg>
