<svg width="27" height="24" viewBox="0 0 27 24" fill="none" xmlns="http://www.w3.org/2000/svg">
<path fill-rule="evenodd" clip-rule="evenodd" d="M0.614787 12.5C0.614787 6.37584 6.13004 1.5 12.8179 1.5C19.5058 1.5 25.021 6.37584 25.021 12.5C25.021 18.6242 19.5058 23.5 12.8179 23.5C10.6088 23.5 8.52086 22.9652 6.71754 22.026L6.54538 21.9364L6.47821 21.9543L5.55735 21.3402C5.37296 21.2173 5.19253 21.0897 5.01626 20.9578L3.85374 21.3121C3.94711 21.3904 4.04169 21.4675 4.13747 21.5433L2.08423 22.0905L2.73635 20.254C2.86809 20.395 3.00331 20.5332 3.14186 20.6683L3.53855 19.6471C3.32948 19.4274 3.12988 19.2001 2.94033 18.9657L2.37906 18.2717L2.39286 18.2329L2.25927 18.0261C1.21504 16.4102 0.614787 14.5276 0.614787 12.5ZM5.67755 19.7109L4.81294 19.1282L5.18419 18.1725L6.90968 19.3354L5.67755 19.7109ZM6.7457 20.4307L8.2899 21.4714L8.81859 21.8277L8.87608 21.8665L8.94194 21.8881C10.1455 22.2836 11.4499 22.5 12.8179 22.5C19.0584 22.5 24.021 17.9725 24.021 12.5C24.021 7.02749 19.0584 2.5 12.8179 2.5C6.57742 2.5 1.61479 7.02749 1.61479 12.5C1.61479 14.6946 2.41862 16.7454 3.78223 18.4082L3.82867 18.4648L3.88941 18.5058L3.96272 18.5552L4.36135 17.529C3.25131 16.0772 2.61479 14.3394 2.61479 12.5C2.61479 7.67628 7.02799 3.5 12.8179 3.5C18.6078 3.5 23.021 7.67628 23.021 12.5C23.021 17.3237 18.6078 21.5 12.8179 21.5C11.5805 21.5 10.4039 21.3082 9.31931 20.9593L8.84877 20.6422L7.97783 20.0552L6.7457 20.4307ZM12.8179 0.5C5.68526 0.5 -0.385213 5.72185 -0.385213 12.5C-0.385213 14.6426 0.225294 16.6371 1.28689 18.359L-0.436129 23.2114L-0.753953 24.1064L-1.07178 25.0015L-0.154006 24.7569L0.763763 24.5123L6.42981 23.0021C8.33456 23.9597 10.5177 24.5 12.8179 24.5C19.9506 24.5 26.021 19.2782 26.021 12.5C26.021 5.72185 19.9506 0.5 12.8179 0.5Z" fill="#0B74CD"/>
<path fill-rule="evenodd" clip-rule="evenodd" d="M8.5854 8.4907C9.04639 8.08852 10.0369 7.86512 10.454 8.08852C11.3039 8.54377 11.8567 10.2073 11.8567 10.5975C11.8567 11.1269 11.0093 11.7497 11.0093 11.7497C11.9475 13.0257 12.9979 13.757 14.5866 14.3951C14.5866 14.3951 15.4621 13.2233 15.8311 13.2233C16.5992 13.2233 18.0407 13.6657 18.8636 14.5216C19.0802 14.7469 18.8781 15.6291 18.284 16.1741C17.2695 17.1049 14.232 17.6469 10.2981 14.3951C7.88282 12.3986 7.0334 9.84469 8.5854 8.4907Z" fill="#0B74CD"/>
</svg>
